<svg xmlns="http://www.w3.org/2000/svg" viewBox="0 0 64 64" fill="none">
  <path d="M32 8c-6.6 0-12.8 2.6-17.4 7.2C9.8 19.8 7 26 7 32.6c0 4.8 1.3 9.4 3.8 13.4" stroke="#00e5ff" stroke-width="3" stroke-linecap="round"/>
  <path d="M20 14c-3.2 3.4-5 8-5 12.8 0 3.8 1.1 7.4 3.2 10.4" stroke="#00e5ff" stroke-width="3" stroke-linecap="round"/>
  <path d="M27 12c-1.8.6-3.4 1.4-4.8 2.6" stroke="#00e5ff" stroke-width="3" stroke-linecap="round"/>
  <ellipse cx="32" cy="27" rx="6" ry="7" stroke="#00e5ff" stroke-width="3"/>
  <path d="M26 34c0 4 2.6 7.4 6 8.8" stroke="#00e5ff" stroke-width="3" stroke-linecap="round"/>
  <path d="M38 34c0 6-2.7 11-6.4 13.4" stroke="#00e5ff" stroke-width="3" stroke-linecap="round"/>
  <path d="M20 28c0 7 5.4 12.8 12 14.4" stroke="#00e5ff" stroke-width="3" stroke-linecap="round"/>
  <path d="M44 28c0 10-5.4 18.6-13.4 22.4" stroke="#00e5ff" stroke-width="3" stroke-linecap="round"/>
  <path d="M44 22c1.3 2.8 2 5.8 2 9" stroke="#00e5ff" stroke-width="3" stroke-linecap="round"/>
  <path d="M37 12c4.6 2.4 7.8 6.6 9 11.6" stroke="#00e5ff" stroke-width="3" stroke-linecap="round"/>
</svg>
